PathFileType  4	(X/Y/Z) C:\Users\antoi\Documents\MyRepositories\mobilecap\ResultsAnalysis
DataRate	CameraRate	NumFrames	NumMarkers	Units	OrigDataRate	OrigDataStartFrame	OrigNumFrames
100.0	100.0	4	51	mm	100.0	148	294
Frame#	Time	r_knee			r_shank_antsup			r_ankle			r_calc			r_5meta			r_toe			L_knee			L_shank_antsup			L_ankle			L_calc			L_5meta			L_toe			r_sh2			r_sh3			r_sh4			L_sh2			L_sh3			r_thigh1			r_thigh2			r_thigh3			r_thigh4			r_thigh5			L_thigh1			L_thigh2			L_thigh3			L_thigh4			r.ASIS			r.PSIS			L.ASIS			L.PSIS			C7			R_Shoulder			L_Shoulder			R_Sternum			L_Sternum			R_humerus			R_elbow_med			R_elbow_lat			R_forearm			R_wrist_radius			R_wrist_ulna			L_humerus			L_elbow_med			L_elbow_lat			L_forearm			L_wrist_radius			L_wrist_ulna			R_HJC			L_HJC			R_HJC_reg			L_HJC_reg			
		X1	Y1	Z1	X2	Y2	Z2	X3	Y3	Z3	X4	Y4	Z4	X5	Y5	Z5	X6	Y6	Z6	X7	Y7	Z7	X8	Y8	Z8	X9	Y9	Z9	X10	Y10	Z10	X11	Y11	Z11	X12	Y12	Z12	X13	Y13	Z13	X14	Y14	Z14	X15	Y15	Z15	X16	Y16	Z16	X17	Y17	Z17	X18	Y18	Z18	X19	Y19	Z19	X20	Y20	Z20	X21	Y21	Z21	X22	Y22	Z22	X23	Y23	Z23	X24	Y24	Z24	X25	Y25	Z25	X26	Y26	Z26	X27	Y27	Z27	X28	Y28	Z28	X29	Y29	Z29	X30	Y30	Z30	X31	Y31	Z31	X32	Y32	Z32	X33	Y33	Z33	X34	Y34	Z34	X35	Y35	Z35	X36	Y36	Z36	X37	Y37	Z37	X38	Y38	Z38	X39	Y39	Z39	X40	Y40	Z40	X41	Y41	Z41	X42	Y42	Z42	X43	Y43	Z43	X44	Y44	Z44	X45	Y45	Z45	X46	Y46	Z46	X47	Y47	Z47	X48	Y48	Z48	X49	Y49	Z49	X50	Y50	Z50	X51	Y51	Z51	

148	1.47000000	-490.00449	756.52175	-386.14688	-442.35133	646.92595	-383.15700	-501.81411	368.40608	-393.49008	-543.58968	353.78386	-454.54315	-422.90692	267.41864	-350.77107	-373.86825	272.87112	-382.59057	-470.02179	768.57996	-803.96334	-417.48564	665.32202	-776.53798	-503.33155	384.03124	-815.21412	-544.51732	369.79612	-761.81960	-416.25208	275.08962	-839.58592	-365.10490	280.89760	-794.41810	-445.79458	533.82091	-386.30890	-509.08945	645.16951	-348.35478	-524.21835	535.04499	-364.12542	-479.34809	692.40471	-835.75878	-488.70531	572.96759	-857.08135	-487.84173	1066.68480	-417.18512	-454.54910	963.81884	-402.98957	-493.67668	928.99120	-360.28428	-590.06426	1035.36643	-383.94882	-549.56834	928.04029	-365.74831	-504.40384	1065.91902	-788.91480	-442.73039	940.83630	-798.60639	-606.34102	1026.73579	-809.70193	-543.32970	899.34470	-817.65146	-469.20523	1185.36699	-477.45021	-633.30912	1276.62936	-536.53323	-481.18493	1194.48315	-719.20566	-642.02673	1282.34971	-649.22398	-473.08946	1701.17185	-584.87294	-409.07229	1658.19019	-440.42193	-413.16570	1669.97822	-735.74289	-366.12341	1615.71291	-574.71678	-363.86074	1612.69476	-608.40954	-427.60365	1542.58440	-361.15681	-570.54319	1384.10403	-381.83451	-535.74240	1384.48687	-315.99083	-522.73153	1257.26590	-289.21332	-531.85390	1153.44940	-281.09726	-557.51987	1163.31860	-254.67800	-433.09364	1533.51976	-820.36806	-571.71289	1381.37129	-814.83639	-537.92574	1392.83713	-879.92261	-525.65773	1298.53763	-916.88939	-554.61454	1169.80108	-937.44249	-568.18443	1182.80734	-964.99907	-575.34184	1141.30027	-499.58676	-580.17174	1143.17471	-688.89355	-556.38366	1138.60987	-507.04664	-568.69802	1146.69065	-666.23468	
149	1.48000000	-477.08256	741.45641	-384.98023	-425.04635	634.21308	-381.32150	-472.70594	352.66887	-390.84935	-513.59107	337.78113	-451.43352	-390.99916	253.15359	-348.25979	-342.04260	260.30085	-379.57710	-455.97003	754.81570	-806.57009	-399.21648	653.33263	-779.56069	-474.26002	369.48356	-820.02087	-514.78020	353.99982	-766.85655	-384.21927	262.50942	-844.65997	-333.37210	269.28967	-799.66930	-423.77586	521.08203	-383.65182	-491.89180	629.92590	-346.84678	-502.37064	519.00548	-362.19275	-462.11181	678.42567	-838.57881	-466.93087	558.90199	-860.63717	-477.26997	1051.27840	-417.22014	-443.82734	948.45974	-402.93338	-482.59893	913.51490	-360.12156	-578.83092	1019.19939	-384.05555	-538.40521	912.39705	-365.41983	-495.11063	1051.11267	-790.59878	-432.21080	926.57892	-800.91398	-597.52403	1010.76905	-808.69396	-532.73836	883.92147	-817.75079	-458.37587	1168.21389	-478.15796	-621.85232	1260.91076	-536.27708	-470.76020	1177.03296	-719.93803	-630.67223	1266.55201	-649.41913	-458.89820	1683.33511	-584.30849	-393.96164	1639.62452	-439.49337	-398.85178	1651.89113	-736.35912	-352.63435	1597.66249	-573.65399	-350.27975	1594.63961	-610.18492	-417.66585	1524.19363	-360.69297	-566.54290	1371.22826	-384.47325	-533.05265	1371.04605	-316.56202	-527.96631	1243.06793	-290.52814	-542.61455	1140.19702	-281.56740	-567.88273	1151.70777	-254.97996	-424.25146	1514.77379	-821.05097	-568.96260	1369.10659	-814.06083	-535.49465	1379.13595	-879.43913	-528.53544	1284.78250	-916.79860	-564.22989	1157.79549	-938.30430	-577.65694	1171.87084	-965.52899	-564.87699	1125.03393	-499.78576	-570.30348	1126.78510	-689.07772	-546.14115	1122.18215	-507.58541	-558.55135	1130.11982	-666.79600	
150	1.49000000	-463.23084	725.03191	-383.99134	-407.72867	620.57492	-379.52034	-444.45733	337.02522	-387.40975	-484.41448	321.57185	-448.26388	-360.12651	238.17524	-346.04109	-311.29072	247.06149	-376.99530	-441.94973	739.90945	-809.12908	-381.00319	640.32750	-782.74413	-445.85342	354.34373	-824.91237	-485.88732	337.65448	-771.74673	-352.79465	249.21408	-849.13787	-302.28463	257.43664	-804.14285	-402.03835	507.68295	-381.12435	-474.58739	614.03444	-345.13925	-480.66935	502.46299	-360.35974	-444.82057	663.66707	-841.41257	-445.51965	544.28542	-864.38523	-466.74843	1035.07848	-417.04940	-432.42044	932.35722	-402.18907	-470.92820	897.18872	-359.92526	-567.56477	1002.08203	-384.05237	-526.89248	895.70821	-364.88805	-485.71402	1034.99979	-792.37600	-421.61421	911.27523	-803.24346	-587.86985	993.56653	-807.68982	-522.12094	867.42673	-818.09448	-447.43486	1150.51333	-478.55587	-610.36317	1243.97869	-536.12349	-460.37860	1158.73826	-721.07405	-619.44609	1249.62210	-649.50120	-444.64099	1664.26647	-583.87798	-378.79949	1620.39190	-438.58600	-384.87285	1632.56291	-737.15893	-338.86958	1578.33082	-573.38630	-337.38069	1576.07461	-613.39724	-408.18057	1505.13051	-360.04915	-562.21729	1357.76688	-387.21379	-530.36635	1356.94604	-317.72221	-533.44616	1228.59016	-292.33064	-552.96346	1127.11616	-282.36125	-577.74718	1140.39488	-255.80919	-415.32270	1495.42971	-821.79259	-565.99069	1355.95422	-812.78895	-533.16281	1364.91506	-878.69450	-531.21372	1270.70588	-916.60555	-573.40462	1145.85223	-938.89400	-586.60640	1160.82964	-965.80913	-554.11925	1107.85909	-499.92268	-560.27338	1109.33938	-689.19408	-535.61592	1104.47179	-507.88566	-548.40888	1112.41895	-667.55858	
151	1.50000000	-448.39084	707.48869	-383.19674	-390.34603	605.87232	-377.66586	-417.02121	320.82068	-384.04520	-456.37368	305.11304	-445.10813	-330.48920	222.29092	-344.28291	-281.83152	232.78613	-374.96307	-427.85000	723.87055	-811.51966	-362.74265	626.47068	-785.79507	-418.22970	338.61902	-829.53903	-458.19305	321.45732	-776.72619	-322.58422	235.19158	-853.33870	-272.16753	244.84443	-808.12068	-380.65624	493.32430	-378.61737	-457.07980	597.21438	-343.40878	-459.03810	485.42118	-358.33471	-427.38404	648.10403	-844.12576	-424.24138	528.91003	-867.93761	-456.14931	1018.01477	-416.72239	-420.39537	915.55890	-401.08929	-458.59363	880.16721	-359.48127	-556.64352	983.93686	-384.02964	-514.76438	878.10718	-363.93554	-476.04910	1017.68317	-794.19697	-410.85007	894.77656	-805.59894	-577.78308	974.79187	-806.99900	-511.18052	849.90919	-818.80497	-436.31100	1131.74973	-478.93941	-598.96093	1225.84093	-536.34506	-449.98195	1139.73610	-722.77524	-608.37234	1231.55163	-649.57811	-430.24499	1644.17337	-584.04043	-364.37366	1599.99008	-438.12668	-371.21928	1611.80409	-738.03984	-324.90098	1557.63353	-573.72547	-324.01532	1556.15206	-615.42376	-398.86122	1485.25239	-359.49166	-557.64582	1343.75057	-389.85458	-527.54907	1342.03670	-319.78172	-537.61762	1214.47389	-293.23960	-562.62732	1113.92438	-283.02714	-587.08066	1129.58126	-257.17222	-406.85097	1475.56668	-822.64382	-562.79478	1342.05610	-811.12847	-530.86350	1350.06085	-877.56990	-533.64789	1256.55451	-916.81746	-581.99530	1133.96189	-939.34351	-595.05497	1149.68324	-965.79523	-543.16777	1089.50287	-500.39612	-550.10197	1090.93346	-689.64102	-524.92963	1085.51615	-508.24306	-538.27280	1093.61221	-668.75642	
